<mxfile host="app.diagrams.net" modified="2022-11-30T17:55:00.804Z" agent="5.0 (Windows NT 10.0; Win64; x64) AppleWebKit/537.36 (KHTML, like Gecko) Chrome/107.0.0.0 Safari/537.36" version="20.6.0" etag="IFdAOaNRfK2B6w8qVZVg" type="github">
  <diagram id="yt7U7-yLkPEDUYZrt_vq" name="sequence diagram ">
    <mxGraphModel dx="906" dy="635" grid="1" gridSize="10" guides="1" tooltips="1" connect="1" arrows="1" fold="1" page="1" pageScale="1" pageWidth="850" pageHeight="1100" math="0" shadow="0">
      <root>
        <mxCell id="0" />
        <mxCell id="1" parent="0" />
        <mxCell id="kt5Zd3Q9Jz4nPwyt5_9t-34" value="videos" style="shape=umlLifeline;participant=umlEntity;perimeter=lifelinePerimeter;whiteSpace=wrap;html=1;container=1;collapsible=0;recursiveResize=0;verticalAlign=top;spacingTop=36;outlineConnect=0;" vertex="1" parent="1">
          <mxGeometry x="630" y="55" width="40" height="945" as="geometry" />
        </mxCell>
        <mxCell id="kt5Zd3Q9Jz4nPwyt5_9t-36" value="" style="html=1;points=[];perimeter=orthogonalPerimeter;" vertex="1" parent="kt5Zd3Q9Jz4nPwyt5_9t-34">
          <mxGeometry x="15" y="425" width="10" height="115" as="geometry" />
        </mxCell>
        <mxCell id="kt5Zd3Q9Jz4nPwyt5_9t-37" value="" style="html=1;points=[];perimeter=orthogonalPerimeter;" vertex="1" parent="kt5Zd3Q9Jz4nPwyt5_9t-34">
          <mxGeometry x="15" y="705" width="10" height="90" as="geometry" />
        </mxCell>
        <mxCell id="kt5Zd3Q9Jz4nPwyt5_9t-76" value="" style="html=1;points=[];perimeter=orthogonalPerimeter;" vertex="1" parent="kt5Zd3Q9Jz4nPwyt5_9t-34">
          <mxGeometry x="15" y="125" width="10" height="150" as="geometry" />
        </mxCell>
        <mxCell id="kt5Zd3Q9Jz4nPwyt5_9t-84" value="insertVideo()" style="html=1;verticalAlign=bottom;endArrow=block;rounded=0;exitX=1.137;exitY=0.862;exitDx=0;exitDy=0;exitPerimeter=0;" edge="1" parent="kt5Zd3Q9Jz4nPwyt5_9t-34" source="kt5Zd3Q9Jz4nPwyt5_9t-75">
          <mxGeometry width="80" relative="1" as="geometry">
            <mxPoint x="-175.00000000000023" y="255" as="sourcePoint" />
            <mxPoint x="14.999999999999773" y="255" as="targetPoint" />
            <mxPoint as="offset" />
          </mxGeometry>
        </mxCell>
        <mxCell id="kt5Zd3Q9Jz4nPwyt5_9t-38" value="videos control" style="shape=umlLifeline;participant=umlControl;perimeter=lifelinePerimeter;whiteSpace=wrap;html=1;container=1;collapsible=0;recursiveResize=0;verticalAlign=top;spacingTop=36;outlineConnect=0;" vertex="1" parent="1">
          <mxGeometry x="460" y="45" width="40" height="955" as="geometry" />
        </mxCell>
        <mxCell id="kt5Zd3Q9Jz4nPwyt5_9t-40" value="" style="html=1;points=[];perimeter=orthogonalPerimeter;" vertex="1" parent="kt5Zd3Q9Jz4nPwyt5_9t-38">
          <mxGeometry x="15" y="430" width="10" height="145" as="geometry" />
        </mxCell>
        <mxCell id="kt5Zd3Q9Jz4nPwyt5_9t-41" value="" style="html=1;points=[];perimeter=orthogonalPerimeter;" vertex="1" parent="kt5Zd3Q9Jz4nPwyt5_9t-38">
          <mxGeometry x="15" y="715" width="10" height="90" as="geometry" />
        </mxCell>
        <mxCell id="kt5Zd3Q9Jz4nPwyt5_9t-75" value="" style="html=1;points=[];perimeter=orthogonalPerimeter;" vertex="1" parent="kt5Zd3Q9Jz4nPwyt5_9t-38">
          <mxGeometry x="15" y="135" width="10" height="150" as="geometry" />
        </mxCell>
        <mxCell id="kt5Zd3Q9Jz4nPwyt5_9t-42" value="admin" style="shape=umlLifeline;participant=umlActor;perimeter=lifelinePerimeter;whiteSpace=wrap;html=1;container=1;collapsible=0;recursiveResize=0;verticalAlign=top;spacingTop=36;outlineConnect=0;size=40;" vertex="1" parent="1">
          <mxGeometry x="90" y="50" width="20" height="950" as="geometry" />
        </mxCell>
        <mxCell id="kt5Zd3Q9Jz4nPwyt5_9t-44" value="" style="html=1;points=[];perimeter=orthogonalPerimeter;" vertex="1" parent="kt5Zd3Q9Jz4nPwyt5_9t-42">
          <mxGeometry x="5" y="420" width="10" height="150" as="geometry" />
        </mxCell>
        <mxCell id="kt5Zd3Q9Jz4nPwyt5_9t-45" value="" style="html=1;points=[];perimeter=orthogonalPerimeter;" vertex="1" parent="kt5Zd3Q9Jz4nPwyt5_9t-42">
          <mxGeometry x="5" y="710" width="10" height="150" as="geometry" />
        </mxCell>
        <mxCell id="kt5Zd3Q9Jz4nPwyt5_9t-73" value="" style="html=1;points=[];perimeter=orthogonalPerimeter;" vertex="1" parent="kt5Zd3Q9Jz4nPwyt5_9t-42">
          <mxGeometry x="5" y="140" width="10" height="150" as="geometry" />
        </mxCell>
        <mxCell id="kt5Zd3Q9Jz4nPwyt5_9t-49" value="manage videos" style="shape=umlLifeline;participant=umlBoundary;perimeter=lifelinePerimeter;whiteSpace=wrap;html=1;container=1;collapsible=0;recursiveResize=0;verticalAlign=top;spacingTop=36;outlineConnect=0;" vertex="1" parent="1">
          <mxGeometry x="270" y="50" width="50" height="950" as="geometry" />
        </mxCell>
        <mxCell id="kt5Zd3Q9Jz4nPwyt5_9t-50" value="" style="html=1;points=[];perimeter=orthogonalPerimeter;" vertex="1" parent="kt5Zd3Q9Jz4nPwyt5_9t-49">
          <mxGeometry x="20" y="430" width="10" height="140" as="geometry" />
        </mxCell>
        <mxCell id="kt5Zd3Q9Jz4nPwyt5_9t-51" value="" style="html=1;points=[];perimeter=orthogonalPerimeter;" vertex="1" parent="kt5Zd3Q9Jz4nPwyt5_9t-49">
          <mxGeometry x="20" y="710" width="10" height="80" as="geometry" />
        </mxCell>
        <mxCell id="kt5Zd3Q9Jz4nPwyt5_9t-74" value="" style="html=1;points=[];perimeter=orthogonalPerimeter;" vertex="1" parent="kt5Zd3Q9Jz4nPwyt5_9t-49">
          <mxGeometry x="20" y="130" width="10" height="60" as="geometry" />
        </mxCell>
        <mxCell id="kt5Zd3Q9Jz4nPwyt5_9t-80" value="" style="html=1;points=[];perimeter=orthogonalPerimeter;fontSize=10;" vertex="1" parent="kt5Zd3Q9Jz4nPwyt5_9t-49">
          <mxGeometry x="20" y="200" width="10" height="40" as="geometry" />
        </mxCell>
        <mxCell id="kt5Zd3Q9Jz4nPwyt5_9t-81" value="record()" style="edgeStyle=orthogonalEdgeStyle;html=1;align=left;spacingLeft=2;endArrow=block;rounded=0;entryX=1;entryY=0;fontSize=10;" edge="1" target="kt5Zd3Q9Jz4nPwyt5_9t-80" parent="kt5Zd3Q9Jz4nPwyt5_9t-49">
          <mxGeometry relative="1" as="geometry">
            <mxPoint x="25" y="190" as="sourcePoint" />
            <Array as="points">
              <mxPoint x="55" y="190" />
            </Array>
          </mxGeometry>
        </mxCell>
        <mxCell id="kt5Zd3Q9Jz4nPwyt5_9t-56" value="upload video" style="html=1;verticalAlign=bottom;endArrow=block;rounded=0;" edge="1" parent="1">
          <mxGeometry width="80" relative="1" as="geometry">
            <mxPoint x="99.99999999999977" y="510" as="sourcePoint" />
            <mxPoint x="289.9999999999998" y="510" as="targetPoint" />
            <mxPoint as="offset" />
          </mxGeometry>
        </mxCell>
        <mxCell id="kt5Zd3Q9Jz4nPwyt5_9t-57" value="upload(video,child id)" style="html=1;verticalAlign=bottom;endArrow=block;rounded=0;entryX=0.2;entryY=0.389;entryDx=0;entryDy=0;entryPerimeter=0;" edge="1" parent="1" source="kt5Zd3Q9Jz4nPwyt5_9t-50" target="kt5Zd3Q9Jz4nPwyt5_9t-40">
          <mxGeometry width="80" relative="1" as="geometry">
            <mxPoint x="340" y="460" as="sourcePoint" />
            <mxPoint x="484" y="435" as="targetPoint" />
            <mxPoint as="offset" />
          </mxGeometry>
        </mxCell>
        <mxCell id="kt5Zd3Q9Jz4nPwyt5_9t-58" value="insertVideo()" style="html=1;verticalAlign=bottom;endArrow=block;rounded=0;" edge="1" parent="1" source="kt5Zd3Q9Jz4nPwyt5_9t-38" target="kt5Zd3Q9Jz4nPwyt5_9t-34">
          <mxGeometry width="80" relative="1" as="geometry">
            <mxPoint x="520" y="479" as="sourcePoint" />
            <mxPoint x="641" y="479" as="targetPoint" />
            <mxPoint as="offset" />
            <Array as="points">
              <mxPoint x="590" y="560" />
            </Array>
          </mxGeometry>
        </mxCell>
        <mxCell id="kt5Zd3Q9Jz4nPwyt5_9t-59" value="delete video" style="html=1;verticalAlign=bottom;endArrow=block;rounded=0;entryX=0.1;entryY=0.1;entryDx=0;entryDy=0;entryPerimeter=0;" edge="1" parent="1" source="kt5Zd3Q9Jz4nPwyt5_9t-45">
          <mxGeometry width="80" relative="1" as="geometry">
            <mxPoint x="99.5" y="790.5999999999999" as="sourcePoint" />
            <mxPoint x="291" y="769.0000000000002" as="targetPoint" />
            <mxPoint as="offset" />
          </mxGeometry>
        </mxCell>
        <mxCell id="kt5Zd3Q9Jz4nPwyt5_9t-60" value="delete(videoid)" style="html=1;verticalAlign=bottom;endArrow=block;rounded=0;exitX=0.9;exitY=0.488;exitDx=0;exitDy=0;exitPerimeter=0;" edge="1" parent="1" source="kt5Zd3Q9Jz4nPwyt5_9t-51">
          <mxGeometry width="80" relative="1" as="geometry">
            <mxPoint x="109.5" y="640.5999999999999" as="sourcePoint" />
            <mxPoint x="480" y="799.0000000000002" as="targetPoint" />
            <mxPoint as="offset" />
          </mxGeometry>
        </mxCell>
        <mxCell id="kt5Zd3Q9Jz4nPwyt5_9t-61" value="deleteVideo()" style="html=1;verticalAlign=bottom;endArrow=block;rounded=0;exitX=0.2;exitY=0.533;exitDx=0;exitDy=0;exitPerimeter=0;" edge="1" parent="1" source="kt5Zd3Q9Jz4nPwyt5_9t-41" target="kt5Zd3Q9Jz4nPwyt5_9t-34">
          <mxGeometry width="80" relative="1" as="geometry">
            <mxPoint x="479.5" y="805.6199999999999" as="sourcePoint" />
            <mxPoint x="610" y="810" as="targetPoint" />
            <mxPoint as="offset" />
          </mxGeometry>
        </mxCell>
        <mxCell id="kt5Zd3Q9Jz4nPwyt5_9t-62" value="[ choose to upload ]" style="text;align=center;fontStyle=1;verticalAlign=middle;spacingLeft=3;spacingRight=3;strokeColor=none;rotatable=0;points=[[0,0.5],[1,0.5]];portConstraint=eastwest;shadow=0;gradientColor=none;fontSize=16;" vertex="1" parent="1">
          <mxGeometry x="20" y="420" width="160" height="33" as="geometry" />
        </mxCell>
        <mxCell id="kt5Zd3Q9Jz4nPwyt5_9t-63" value="" style="line;strokeWidth=3;fillColor=none;align=left;verticalAlign=middle;spacingTop=-1;spacingLeft=3;spacingRight=3;rotatable=0;labelPosition=right;points=[];portConstraint=eastwest;shadow=0;fontSize=16;dashed=1;perimeterSpacing=0;" vertex="1" parent="1">
          <mxGeometry x="10" y="660" width="710" height="8" as="geometry" />
        </mxCell>
        <mxCell id="kt5Zd3Q9Jz4nPwyt5_9t-64" value="[ choose to delete ]" style="text;align=center;fontStyle=1;verticalAlign=middle;spacingLeft=3;spacingRight=3;strokeColor=none;rotatable=0;points=[[0,0.5],[1,0.5]];portConstraint=eastwest;shadow=0;gradientColor=none;fontSize=16;" vertex="1" parent="1">
          <mxGeometry x="20" y="690" width="160" height="33" as="geometry" />
        </mxCell>
        <mxCell id="kt5Zd3Q9Jz4nPwyt5_9t-70" value="alt" style="shape=umlFrame;whiteSpace=wrap;html=1;shadow=0;fontSize=16;strokeWidth=3;gradientColor=none;width=49;height=30;" vertex="1" parent="1">
          <mxGeometry x="10" y="126.5" width="710" height="873.5" as="geometry" />
        </mxCell>
        <mxCell id="kt5Zd3Q9Jz4nPwyt5_9t-71" value="" style="line;strokeWidth=3;fillColor=none;align=left;verticalAlign=middle;spacingTop=-1;spacingLeft=3;spacingRight=3;rotatable=0;labelPosition=right;points=[];portConstraint=eastwest;shadow=0;fontSize=16;dashed=1;perimeterSpacing=0;" vertex="1" parent="1">
          <mxGeometry x="10" y="390" width="710" height="8" as="geometry" />
        </mxCell>
        <mxCell id="kt5Zd3Q9Jz4nPwyt5_9t-72" value="[ choose to record ]" style="text;align=center;fontStyle=1;verticalAlign=middle;spacingLeft=3;spacingRight=3;strokeColor=none;rotatable=0;points=[[0,0.5],[1,0.5]];portConstraint=eastwest;shadow=0;gradientColor=none;fontSize=16;" vertex="1" parent="1">
          <mxGeometry x="20" y="150" width="160" height="33" as="geometry" />
        </mxCell>
        <mxCell id="kt5Zd3Q9Jz4nPwyt5_9t-77" value="" style="endArrow=classic;html=1;rounded=0;fontSize=8;exitX=0.955;exitY=0.092;exitDx=0;exitDy=0;exitPerimeter=0;" edge="1" parent="1" source="kt5Zd3Q9Jz4nPwyt5_9t-73" target="kt5Zd3Q9Jz4nPwyt5_9t-49">
          <mxGeometry width="50" height="50" relative="1" as="geometry">
            <mxPoint x="240" y="360" as="sourcePoint" />
            <mxPoint x="290" y="310" as="targetPoint" />
          </mxGeometry>
        </mxCell>
        <mxCell id="kt5Zd3Q9Jz4nPwyt5_9t-78" value="&lt;p&gt;&lt;span style=&quot;font-size: 10px;&quot;&gt;record video&lt;/span&gt;&lt;/p&gt;" style="edgeLabel;html=1;align=center;verticalAlign=middle;resizable=0;points=[];fontSize=8;" vertex="1" connectable="0" parent="kt5Zd3Q9Jz4nPwyt5_9t-77">
          <mxGeometry x="-0.1921" y="2" relative="1" as="geometry">
            <mxPoint as="offset" />
          </mxGeometry>
        </mxCell>
        <mxCell id="kt5Zd3Q9Jz4nPwyt5_9t-83" value="upload (record,child id)" style="html=1;verticalAlign=bottom;endArrow=block;rounded=0;" edge="1" parent="1">
          <mxGeometry width="80" relative="1" as="geometry">
            <mxPoint x="300" y="290" as="sourcePoint" />
            <mxPoint x="479.9999999999998" y="290" as="targetPoint" />
            <mxPoint as="offset" />
          </mxGeometry>
        </mxCell>
      </root>
    </mxGraphModel>
  </diagram>
</mxfile>
